<?xml version="1.0" standalone="no"?>
<!DOCTYPE svg PUBLIC "-//W3C//DTD SVG 20010904//EN"
 "http://www.w3.org/TR/2001/REC-SVG-20010904/DTD/svg10.dtd">
<svg version="1.0" xmlns="http://www.w3.org/2000/svg"
 width="512.000000pt" height="512.000000pt" viewBox="0 0 512.000000 512.000000"
 preserveAspectRatio="xMidYMid meet">
<metadata>
Created by potrace 1.14, written by Peter Selinger 2001-2017
</metadata>
<g transform="translate(0.000000,512.000000) scale(0.100000,-0.100000)"
fill="#000000" stroke="none">
<path d="M4355 4673 c-272 -58 -475 -296 -492 -578 -10 -167 52 -343 161 -462
l53 -58 -291 -553 -291 -552 -60 7 c-77 10 -187 7 -250 -8 -27 -6 -87 -29
-133 -51 l-83 -39 -37 33 c-21 18 -119 106 -218 196 l-182 163 28 67 c140 337
-40 726 -390 842 -92 31 -226 37 -326 16 -126 -28 -216 -77 -309 -171 -132
-131 -188 -265 -188 -445 0 -147 46 -286 129 -386 19 -23 34 -45 34 -48 0 -4
-635 -957 -656 -985 -1 -1 -33 5 -70 14 -86 21 -238 21 -319 0 -218 -58 -393
-234 -449 -452 -20 -78 -21 -240 -1 -318 43 -171 169 -326 325 -404 110 -54
209 -75 320 -68 327 21 577 269 597 592 9 151 -39 308 -130 427 l-35 46 331
495 332 494 40 -15 c29 -11 79 -16 180 -16 154 -1 219 14 316 74 l46 28 221
-199 221 -200 -25 -54 c-61 -133 -68 -304 -19 -450 33 -100 65 -154 138 -231
72 -78 162 -135 264 -171 68 -23 93 -27 198 -26 93 0 134 4 182 20 97 32 192
91 264 162 241 242 245 629 8 886 l-39 42 290 549 289 549 33 -2 c212 -11 297
1 416 61 160 81 282 231 326 403 20 78 21 240 1 318 -43 171 -169 326 -325
404 -140 68 -277 86 -425 54z m287 -306 c68 -34 131 -100 166 -175 38 -81 38
-193 0 -274 -34 -73 -103 -142 -176 -176 -46 -21 -72 -26 -137 -27 -106 0
-184 34 -255 112 -69 75 -93 144 -88 248 8 146 84 249 224 306 72 29 192 22
266 -14z m-2514 -981 c70 -35 128 -95 161 -165 22 -48 26 -69 26 -146 -1 -73
-5 -99 -24 -137 -36 -73 -95 -134 -164 -167 -87 -43 -157 -49 -244 -22 -263
82 -338 396 -137 580 77 70 137 92 244 88 69 -3 95 -9 138 -31z m1356 -1225
c75 -37 128 -92 164 -170 38 -81 38 -193 0 -273 -35 -75 -94 -138 -165 -174
-51 -26 -68 -29 -148 -29 -78 0 -97 4 -147 28 -74 36 -150 119 -178 195 -28
72 -24 183 8 254 40 90 140 174 236 199 63 16 162 4 230 -30z m-2715 -786 c79
-36 151 -112 181 -193 61 -162 -19 -355 -180 -431 -46 -22 -69 -26 -145 -26
-78 0 -97 4 -146 28 -69 34 -132 100 -167 175 -38 81 -38 193 0 274 44 95 136
173 235 198 63 16 154 5 222 -25z"/>
</g>
</svg>
